<?xml version="1.0" encoding="utf-8"?>
<!-- Generator: Adobe Illustrator 26.5.0, SVG Export Plug-In . SVG Version: 6.00 Build 0)  -->
<svg version="1.1" id="Layer_1" xmlns="http://www.w3.org/2000/svg" xmlns:xlink="http://www.w3.org/1999/xlink" x="0px" y="0px"
	 viewBox="0 0 224 128" style="enable-background:new 0 0 224 128;" xml:space="preserve">
<style type="text/css">
	.st0{fill:#1BB3B3;}
	.st1{fill:#509BE6;}
	.st2{fill:#D94962;}
	.st3{fill:#FFAA00;}
</style>
<g>
	<g>
		<g>
			<path class="st0" d="M10.1,0.5H1.5C0.6,0.5,0,1.1,0,2v23.9c0,0.9,0.6,1.5,1.5,1.5h8.6c8,0,14-5.8,14-13.5
				C24.2,6.3,18.1,0.5,10.1,0.5z M10.3,21.1H6.7V6.8h3.6c4.2,0,7.2,2.9,7.2,7.2C17.5,18.2,14.5,21.1,10.3,21.1z"/>
			<path class="st0" d="M33.8,0.5h-3.6c-0.9,0-1.5,0.6-1.5,1.5v23.9c0,0.9,0.6,1.5,1.5,1.5h3.6c0.9,0,1.5-0.6,1.5-1.5V2
				C35.3,1.1,34.7,0.5,33.8,0.5z"/>
			<path class="st0" d="M51.4,10.6c-4.1-1.2-4.4-2-4.4-2.8c0-1.3,1.6-1.7,3.1-1.7c1.7,0,3.6,0.6,5,1.8c0.7,0.5,1.6,0.4,2.1-0.2
				l2-2.4c0.4-0.4,0.4-0.8,0.4-1.1s-0.1-0.7-0.6-1C56.4,1.1,53.2,0,49.7,0c-6.5,0-9.4,3.9-9.4,7.7c0,4.4,2.5,6.9,8.8,8.7
				c3.8,1.1,4.5,1.9,4.5,3.2c0,1.9-2.5,2.1-3.6,2.1c-2.1,0-4.2-0.9-5.8-2.5c-0.3-0.3-0.7-0.5-1.1-0.5l0,0c-0.3,0-0.7,0.1-1.1,0.5
				l-2.2,2.2c-0.4,0.4-0.5,0.8-0.5,1.1c0,0.4,0.2,0.7,0.4,1c2.7,2.8,6.4,4.4,10.4,4.4c6.1,0,10.2-3.4,10.2-8.4
				C60.2,15.1,57.8,12.7,51.4,10.6z"/>
			<path class="st0" d="M84.1,20.3c-0.3-0.5-0.7-0.6-1-0.6s-0.7,0-1.1,0.3c-1.6,1.1-3.1,1.6-4.9,1.6c-4.1,0-7.4-3.4-7.4-7.6
				s3.3-7.6,7.4-7.6C78.8,6.4,80.6,7,82,8c0.3,0.2,0.7,0.3,1.1,0.3c0.4-0.1,0.7-0.3,1-0.6l2-2.6c0.5-0.7,0.4-1.5-0.3-2.1
				c-2.6-2-5.6-3-8.8-3c-7.9,0-14.1,6.1-14.1,13.9c0,7.9,6.2,14,14.1,14c3.2,0,6.2-1,8.8-3c0.6-0.5,0.6-1.3,0.2-2L84.1,20.3z"/>
			<path class="st0" d="M102.3,0c-7.9,0-14.1,6.1-14.1,13.9c0,7.9,6.2,14,14.1,14s14.1-6.2,14.1-14S110.2,0,102.3,0z M102.3,21.6
				c-4.1,0-7.4-3.4-7.4-7.6s3.3-7.6,7.4-7.6s7.4,3.4,7.4,7.6C109.7,18.2,106.4,21.6,102.3,21.6z"/>
			<path class="st0" d="M141.2,0.5h-3.8c-0.8,0-1.3,0.4-1.6,1.1L130,17.5l-5.8-15.9c-0.2-0.7-0.8-1.1-1.6-1.1h-3.8
				c-0.5,0-1,0.2-1.2,0.6s-0.3,0.9-0.1,1.3l9.5,23.9c0.3,0.7,0.8,1.1,1.6,1.1h3c0.7,0,1.3-0.4,1.6-1.1l9.5-24c0.2-0.5,0.1-1-0.1-1.3
				C142.3,0.8,141.9,0.5,141.2,0.5z"/>
			<path class="st0" d="M164.7,21.2h-12v-4.7h9.1c0.9,0,1.5-0.6,1.5-1.5v-2.8c0-0.9-0.6-1.5-1.5-1.5h-9.1V6.6h11.8
				c0.9,0,1.5-0.6,1.5-1.5V2c0-0.9-0.6-1.5-1.5-1.5h-16.9c-0.9,0-1.5,0.6-1.5,1.5v23.9c0,0.9,0.6,1.5,1.5,1.5h17.2
				c0.9,0,1.5-0.6,1.5-1.5v-3.1C166.2,21.9,165.6,21.2,164.7,21.2z"/>
			<path class="st0" d="M187.8,17c2.5-1.6,3.9-4.1,3.9-7.4c0-5.5-3.9-9.2-9.7-9.2h-9.9c-0.9,0-1.5,0.6-1.5,1.5v23.9
				c0,0.9,0.6,1.5,1.5,1.5h3.6c0.9,0,1.5-0.6,1.5-1.5v-7h3.4c0.3,0,0.5,0,0.8,0l3.5,7.5c0.3,0.6,0.9,1,1.6,1h4.1
				c0.5,0,1-0.2,1.2-0.6c0.2-0.4,0.2-0.9,0-1.4L187.8,17z M177.2,6.5h4.3c1.6,0,3.4,0.8,3.4,3.2c0,2-1.4,3.3-3.4,3.3h-4.3V6.5z"/>
			<path class="st0" d="M216.4,1.1c-0.2-0.4-0.7-0.6-1.2-0.6h-4.3c-0.7,0-1.3,0.3-1.6,0.9l-4.6,8.7l-4.6-8.6c-0.2-0.4-0.6-1-1.6-1
				h-4.2c-0.6,0-1,0.2-1.3,0.7c-0.2,0.4-0.2,0.9,0.1,1.4l8.3,14.1v9.2c0,0.9,0.6,1.5,1.5,1.5h3.5c0.9,0,1.6-0.6,1.6-1.5v-9.3
				l8.3-14.1C216.6,2,216.6,1.5,216.4,1.1z"/>
		</g>
	</g>
	<path class="st1" d="M57.7,98.2H31.9c-1.1,0-2-0.9-2-2V40.6c0-1.1-0.9-2-2-2H2c-1.1,0-2,0.9-2,2V126c0,1.1,0.9,2,2,2h55.7
		c1.1,0,2-0.9,2-2v-25.8C59.7,99.1,58.8,98.2,57.7,98.2z M14.9,114c-2.6,0-4.7-2.1-4.7-4.7c0-2.2,1.6-4.1,3.7-4.5v-29
		c0-0.6,0.4-1,1-1c0.6,0,1,0.4,1,1v29c2.1,0.5,3.7,2.3,3.7,4.5C19.6,111.9,17.5,114,14.9,114z M20.5,65.7H9.3c-0.6,0-1-0.4-1-1
		s0.4-1,1-1h11.2c0.6,0,1,0.4,1,1S21.1,65.7,20.5,65.7z M20.5,58.2H9.3c-0.6,0-1-0.4-1-1s0.4-1,1-1h11.2c0.6,0,1,0.4,1,1
		S21.1,58.2,20.5,58.2z M20.5,50.8H9.3c-0.6,0-1-0.4-1-1s0.4-1,1-1h11.2c0.6,0,1,0.4,1,1C21.5,50.3,21.1,50.8,20.5,50.8z
		 M37.3,117.8c-2.6,0-4.7-2.1-4.7-4.7s2.1-4.7,4.7-4.7c2.6,0,4.7,2.1,4.7,4.7C42,115.7,39.9,117.8,37.3,117.8z"/>
	<path class="st2" d="M211.9,77c2.9-4,4.6-8.9,4.6-14.2c0-13.3-11.5-24.2-24.8-24.2h-32.9c-1.1,0-2,0.9-2,2V126c0,1.1,0.9,2,2,2
		h20.4h13.1h3.1c15.4,0,28.3-12.1,28.6-27.4C224.2,90.8,219.3,82.2,211.9,77z M187.6,108c-4.4,0-8-3.6-8-8s3.6-8,8-8s8,3.6,8,8
		S192,108,187.6,108z M194.1,64.3h-5v5c0,0.8-0.7,1.5-1.5,1.5s-1.5-0.7-1.5-1.5v-5h-5c-0.8,0-1.5-0.7-1.5-1.5s0.7-1.5,1.5-1.5h5v-5
		c0-0.8,0.7-1.5,1.5-1.5s1.5,0.7,1.5,1.5v5h5c0.8,0,1.5,0.7,1.5,1.5S194.9,64.3,194.1,64.3z"/>
	<path class="st3" d="M152.1,125.3L120,39.9c-0.3-0.8-1-1.3-1.9-1.3H98.5c-0.8,0-1.6,0.5-1.9,1.3l-32.1,85.4
		c-0.5,1.3,0.5,2.7,1.9,2.7h83.8C151.6,128,152.5,126.6,152.1,125.3z M108.3,58.8c2.2,0,4,1.8,4,4s-1.8,4-4,4s-4-1.8-4-4
		C104.3,60.6,106.1,58.8,108.3,58.8z M117,108H99.6c-1,0-1.4-1.3-0.6-1.8l8.7-5.8c0.3-0.2,0.8-0.2,1.1,0l8.7,5.8
		C118.3,106.8,118,108,117,108z M121.3,89.4h-26c-1,0-1.4-1.2-0.6-1.8l13-9.7c0.4-0.3,0.8-0.3,1.2,0l13,9.7
		C122.6,88.2,122.2,89.4,121.3,89.4z"/>
</g>
</svg>
