<?xml version="1.0" encoding="UTF-8"?>
<svg id="Layer_1" data-name="Layer 1" xmlns="http://www.w3.org/2000/svg" width="84" height="48" viewBox="0 0 84 48">
  <g>
    <path d="M3.7874,.1875H.5625C.225,.1875,0,.4125,0,.75V9.7125c0,.3375,.225,.5625,.5625,.5625H3.7874c2.9999,0,5.2499-2.175,5.2499-5.0625C9.0748,2.3625,6.7873,.1875,3.7874,.1875Zm.075,7.725h-1.35V2.55h1.35c1.575,0,2.6999,1.0875,2.6999,2.7,0,1.575-1.125,2.6625-2.6999,2.6625Z" fill="#1bb3b3"/>
    <path d="M12.6747,.1875h-1.35c-.3375,0-.5625,.225-.5625,.5625V9.7125c0,.3375,.225,.5625,.5625,.5625h1.35c.3375,0,.5625-.225,.5625-.5625V.75c0-.3375-.225-.5625-.5625-.5625Z" fill="#1bb3b3"/>
    <path d="M19.2745,3.975c-1.5375-.45-1.65-.75-1.65-1.05,0-.4875,.6-.6375,1.1625-.6375,.6375,0,1.35,.225,1.875,.675,.2625,.1875,.6,.15,.7875-.075l.75-.9c.15-.15,.15-.3,.15-.4125s-.0375-.2625-.225-.375c-.975-.7875-2.1749-1.2-3.4874-1.2-2.4374,0-3.5249,1.4625-3.5249,2.8875,0,1.65,.9375,2.5875,3.2999,3.2625,1.425,.4125,1.6875,.7125,1.6875,1.2,0,.7125-.9375,.7875-1.35,.7875-.7875,0-1.575-.3375-2.1749-.9375-.1125-.1125-.2625-.1875-.4125-.1875h0c-.1125,0-.2625,.0375-.4125,.1875l-.825,.825c-.15,.15-.1875,.3-.1875,.4125,0,.15,.075,.2625,.15,.375,1.0125,1.05,2.3999,1.65,3.8999,1.65,2.2874,0,3.8249-1.275,3.8249-3.15-.0375-1.65-.9375-2.55-3.3374-3.3375Z" fill="#1bb3b3"/>
    <path d="M31.5367,7.6125c-.1125-.1875-.2625-.225-.375-.225s-.2625,0-.4125,.1125c-.6,.4125-1.1625,.6-1.8375,.6-1.5375,0-2.7749-1.275-2.7749-2.85s1.2375-2.85,2.7749-2.85c.6375,0,1.3125,.225,1.8375,.6,.1125,.075,.2625,.1125,.4125,.1125,.15-.0375,.2625-.1125,.375-.225l.75-.975c.1875-.2625,.15-.5625-.1125-.7875-.975-.75-2.0999-1.125-3.2999-1.125-2.9624,0-5.2874,2.2875-5.2874,5.2125,0,2.9625,2.3249,5.25,5.2874,5.25,1.2,0,2.3249-.375,3.2999-1.125,.225-.1875,.225-.4875,.075-.75l-.7125-.975Z" fill="#1bb3b3"/>
    <path d="M38.3615,0c-2.9624,0-5.2874,2.2875-5.2874,5.2125,0,2.9625,2.3249,5.25,5.2874,5.25s5.2874-2.325,5.2874-5.25-2.3249-5.2125-5.2874-5.2125Zm0,8.1c-1.5375,0-2.7749-1.275-2.7749-2.85s1.2375-2.85,2.7749-2.85,2.7749,1.275,2.7749,2.85c0,1.575-1.2375,2.85-2.7749,2.85Z" fill="#1bb3b3"/>
    <path d="M52.9486,.1875h-1.425c-.3,0-.4875,.15-.6,.4125l-2.1749,5.9625-2.1749-5.9625c-.075-.2625-.3-.4125-.6-.4125h-1.425c-.1875,0-.375,.075-.45,.225-.075,.15-.1125,.3375-.0375,.4875l3.5624,8.9625c.1125,.2625,.3,.4125,.6,.4125h1.125c.2625,0,.4875-.15,.6-.4125L53.5111,.8625c.075-.1875,.0375-.375-.0375-.4875-.1125-.075-.2625-.1875-.525-.1875Z" fill="#1bb3b3"/>
    <path d="M61.7609,7.95h-4.4999v-1.7625h3.4124c.3375,0,.5625-.225,.5625-.5625v-1.05c0-.3375-.225-.5625-.5625-.5625h-3.4124v-1.5375h4.4249c.3375,0,.5625-.225,.5625-.5625V.75c0-.3375-.225-.5625-.5625-.5625h-6.3373c-.3375,0-.5625,.225-.5625,.5625V9.7125c0,.3375,.225,.5625,.5625,.5625h6.4498c.3375,0,.5625-.225,.5625-.5625v-1.1625c-.0375-.3375-.2625-.6-.6-.6Z" fill="#1bb3b3"/>
    <path d="M70.4231,6.375c.9375-.6,1.4625-1.5375,1.4625-2.775,0-2.0625-1.4625-3.45-3.6374-3.45h-3.7124c-.3375,0-.5625,.225-.5625,.5625V9.675c0,.3375,.225,.5625,.5625,.5625h1.35c.3375,0,.5625-.225,.5625-.5625v-2.625h1.575l1.3125,2.8125c.1125,.225,.3375,.375,.6,.375h1.5375c.1875,0,.375-.075,.45-.225s.075-.3375,0-.525l-1.5-3.1125Zm-3.9749-3.9375h1.6125c.6,0,1.275,.3,1.275,1.2,0,.75-.525,1.2375-1.275,1.2375h-1.6125V2.4375Z" fill="#1bb3b3"/>
    <path d="M81.1479,.4125c-.075-.15-.2625-.225-.45-.225h-1.6125c-.2625,0-.4875,.1125-.6,.3375l-1.725,3.2625-1.725-3.225c-.075-.15-.225-.375-.6-.375h-1.575c-.225,0-.375,.075-.4875,.2625-.075,.15-.075,.3375,.0375,.525l3.1124,5.2875v3.45c0,.3375,.225,.5625,.5625,.5625h1.3125c.3375,0,.6-.225,.6-.5625v-3.4875l3.1124-5.2875c.1125-.1875,.1125-.375,.0375-.525Z" fill="#1bb3b3"/>
  </g>
  <path d="M21.6369,36.825H11.9622c-.4125,0-.75-.3375-.75-.75V15.225c0-.4125-.3375-.75-.75-.75H.75c-.4125,0-.75,.3375-.75,.75V47.25c0,.4125,.3375,.75,.75,.75H21.6369c.4125,0,.75-.3375,.75-.75v-9.675c0-.4125-.3375-.75-.75-.75Zm-16.0496,5.925c-.975,0-1.7625-.7875-1.7625-1.7625,0-.825,.6-1.5375,1.3875-1.6875v-10.875c0-.225,.15-.375,.375-.375s.375,.15,.375,.375v10.875c.7875,.1875,1.3875,.8625,1.3875,1.6875,0,.975-.7875,1.7625-1.7625,1.7625Zm2.0999-18.1125H3.4874c-.225,0-.375-.15-.375-.375s.15-.375,.375-.375H7.6873c.225,0,.375,.15,.375,.375s-.15,.375-.375,.375Zm0-2.8125H3.4874c-.225,0-.375-.15-.375-.375s.15-.375,.375-.375H7.6873c.225,0,.375,.15,.375,.375s-.15,.375-.375,.375Zm0-2.775H3.4874c-.225,0-.375-.15-.375-.375s.15-.375,.375-.375H7.6873c.225,0,.375,.15,.375,.375,0,.1875-.15,.375-.375,.375Zm6.2998,25.125c-.975,0-1.7625-.7875-1.7625-1.7625s.7875-1.7625,1.7625-1.7625,1.7625,.7875,1.7625,1.7625-.7875,1.7625-1.7625,1.7625Z" fill="#509be6"/>
  <path d="M79.4604,28.875c1.0875-1.5,1.725-3.3375,1.725-5.325,0-4.9875-4.3124-9.075-9.2998-9.075h-12.3372c-.4125,0-.75,.3375-.75,.75V47.25c0,.4125,.3375,.75,.75,.75h13.7246c5.7748,0,10.6122-4.5375,10.7247-10.275,.075-3.675-1.7625-6.9-4.5374-8.85Zm-9.1123,11.625c-1.65,0-2.9999-1.35-2.9999-3s1.35-3,2.9999-3,2.9999,1.35,2.9999,3-1.35,3-2.9999,3Zm2.4374-16.3875h-1.875v1.875c0,.3-.2625,.5625-.5625,.5625s-.5625-.2625-.5625-.5625v-1.875h-1.875c-.3,0-.5625-.2625-.5625-.5625s.2625-.5625,.5625-.5625h1.875v-1.875c0-.3,.2625-.5625,.5625-.5625s.5625,.2625,.5625,.5625v1.875h1.875c.3,0,.5625,.2625,.5625,.5625s-.2625,.5625-.5625,.5625Z" fill="#d94962"/>
  <path d="M57.036,46.9875L44.9988,14.9625c-.1125-.3-.375-.4875-.7125-.4875h-7.3498c-.3,0-.6,.1875-.7125,.4875l-12.0372,32.025c-.1875,.4875,.1875,1.0125,.7125,1.0125h31.4242c.525,0,.8625-.525,.7125-1.0125Zm-16.4246-24.9375c.825,0,1.5,.675,1.5,1.5s-.675,1.5-1.5,1.5-1.5-.675-1.5-1.5,.675-1.5,1.5-1.5Zm3.2624,18.45h-6.5248c-.375,0-.525-.4875-.225-.675l3.2624-2.175c.1125-.075,.3-.075,.4125,0l3.2624,2.175c.3,.225,.1875,.675-.1875,.675Zm1.6125-6.975h-9.7497c-.375,0-.525-.45-.225-.675l4.8749-3.6375c.15-.1125,.3-.1125,.45,0l4.8749,3.6375c.2625,.225,.1125,.675-.225,.675Z" fill="#fa0"/>
</svg>